Miley Cyrus - You're Gonna Make Me Lonesome When You Go ft. Johnzo West
=========================================================================



General
Complete name                  : Miley Cyrus featuring Johnzo West - You're Gonna Make Me Lonesome When You Go (UJ.rip).mp4
Format                         : MPEG-4
Format profile                 : Base Media / Version 2
Codec ID                       : mp42
File size                      : 79.3 MiB
Duration                       : 4mn 6s
Overall bit rate mode          : Variable
Overall bit rate               : 2 699 Kbps
Encoded date                   : UTC 2012-01-22 05:30:06
Tagged date                    : UTC 2012-01-22 05:30:06

Video
ID                             : 1
Format                         : AVC
Format/Info                    : Advanced Video Codec
Format profile                 : High@L4.0
Format settings, CABAC         : Yes
Format settings, ReFrames      : 1 frame
Codec ID                       : avc1
Codec ID/Info                  : Advanced Video Coding
Duration                       : 4mn 6s
Bit rate                       : 2 551 Kbps
Maximum bit rate               : 13.9 Mbps
Width                          : 1 920 pixels
Height                         : 1 080 pixels
Display aspect ratio           : 16:9
Frame rate mode                : Constant
Frame rate                     : 23.976 fps
Color space                    : YUV
Chroma subsampling             : 4:2:0
Bit depth                      : 8 bits
Scan type                      : Progressive
Bits/(Pixel*Frame)             : 0.051
Stream size                    : 74.9 MiB (95%)
Tagged date                    : UTC 2012-01-22 05:30:06

Audio
ID                             : 2
Format                         : AAC
Format/Info                    : Advanced Audio Codec
Format profile                 : LC
Codec ID                       : 40
Duration                       : 4mn 6s
Bit rate mode                  : Variable
Bit rate                       : 144 Kbps
Maximum bit rate               : 183 Kbps
Channel(s)                     : 2 channels
Channel positions              : Front: L R
Sampling rate                  : 44.1 KHz
Compression mode               : Lossy
Stream size                    : 4.29 MiB (5%)
Encoded date                   : UTC 2012-01-22 05:30:06
Tagged date                    : UTC 2012-01-22 05:30:06



SCREENSHOTS -
===============
 
http://img804.imageshack.us/img804/2184/regonnamakemelonesomewh.jpg

=====================

=============

CHECK MY PROFILE AND FEEL FREE TO DOWNLOAD MORE WINDOWS SOFTWARE, THEMES, SONGS, MOVIES, LATEST MAGAZINES, EBOOKS AND MUCH MORE STUFF FROM THIS ACCOUNT

------------------------------------------------------------------------------- 
http://thepiratebay.se/user/clueman7
-------------------------------------------------------------------------------
